<?xml version="1.0" standalone="no"?>
<!DOCTYPE svg PUBLIC "-//W3C//DTD SVG 20010904//EN"
 "http://www.w3.org/TR/2001/REC-SVG-20010904/DTD/svg10.dtd">
<svg version="1.0" xmlns="http://www.w3.org/2000/svg"
 width="512.000000pt" height="512.000000pt" viewBox="0 0 512.000000 512.000000"
 preserveAspectRatio="xMidYMid meet">
<metadata>
Created by potrace 1.16, written by Peter Selinger 2001-2019
</metadata>
<g transform="translate(0.000000,512.000000) scale(0.100000,-0.100000)"
fill="#000000" stroke="none">
<path d="M2532 4719 c-85 -11 -173 -54 -252 -123 -35 -31 -76 -59 -90 -63 -36
-9 -81 -32 -108 -57 -36 -32 -55 -77 -102 -234 -54 -182 -53 -239 5 -382 35
-88 38 -101 36 -182 -3 -91 15 -178 46 -225 19 -29 13 -70 -44 -308 -28 -118
-37 -179 -42 -285 l-6 -135 -170 -95 c-93 -53 -231 -132 -305 -176 l-135 -79
-56 -113 c-63 -124 -183 -409 -265 -628 -51 -137 -156 -464 -148 -464 14 0
120 243 194 445 101 276 145 389 225 570 60 136 76 162 94 150 28 -16 101
-200 135 -337 15 -60 70 -538 63 -545 -6 -6 -37 145 -47 232 -11 92 -39 229
-45 223 -2 -2 1 -36 6 -76 6 -39 9 -98 7 -129 l-3 -58 -29 52 c-27 50 -67 86
-51 46 28 -67 83 -332 101 -486 9 -83 -8 -79 -140 37 l-68 60 31 -49 c18 -28
52 -78 77 -113 24 -35 44 -68 44 -73 0 -6 -33 18 -72 51 -40 34 -113 88 -161
121 -94 63 -135 73 -192 47 -26 -12 -29 -17 -25 -56 1 -17 -21 -46 -77 -105
-87 -92 -163 -199 -163 -231 0 -12 12 -41 26 -66 23 -40 25 -52 19 -107 -19
-183 57 -274 314 -374 157 -61 353 -167 347 -188 -2 -9 -7 -47 -11 -86 -3 -38
-8 -83 -11 -98 -5 -26 -3 -28 18 -25 22 3 24 9 32 101 8 95 9 98 31 93 21 -5
62 11 119 49 l29 19 -16 -30 c-9 -16 -25 -42 -36 -59 l-21 -30 83 -21 82 -20
0 -52 0 -52 88 0 88 0 -1 133 c-2 210 -2 203 26 237 15 17 66 51 114 75 47 24
107 59 133 79 25 19 69 45 97 57 43 18 55 30 76 72 22 43 24 53 13 79 -18 44
-87 107 -167 155 -82 49 -158 76 -253 93 l-67 12 -6 56 c-14 135 -18 259 -9
265 5 3 77 -2 159 -13 322 -41 537 -55 673 -42 149 13 404 52 589 88 73 15
136 24 139 20 8 -7 -20 -412 -29 -421 -3 -3 -71 -12 -152 -20 -157 -15 -208
-31 -302 -95 -51 -36 -104 -111 -104 -148 0 -13 7 -46 17 -74 14 -44 22 -53
58 -69 23 -10 49 -26 56 -36 20 -23 80 -48 179 -73 47 -12 91 -27 98 -32 9 -8
11 -33 8 -92 -3 -45 -8 -132 -11 -193 l-6 -113 60 0 61 0 0 74 c0 82 6 106 25
106 23 0 34 -26 46 -103 11 -73 13 -77 37 -77 27 0 27 -9 5 194 l-6 58 42 -28
c23 -15 54 -27 69 -27 27 0 445 212 547 278 58 37 111 88 131 127 17 32 94
264 94 281 0 51 -28 97 -101 173 -69 70 -79 85 -79 116 0 23 -5 38 -16 42 -9
3 -66 6 -128 6 -126 0 -183 -13 -288 -66 -38 -18 -68 -30 -68 -26 0 4 30 30
66 57 184 139 225 185 259 292 21 64 16 95 -28 188 l-34 70 -7 -82 c-13 -159
-81 -313 -173 -392 -26 -22 -49 -39 -50 -37 -2 2 10 33 27 69 29 65 80 225 80
254 0 8 -16 -16 -35 -53 -39 -75 -125 -193 -154 -211 -14 -9 -10 9 21 84 47
114 94 262 103 329 l8 49 -21 -26 c-11 -14 -50 -79 -86 -145 -69 -125 -72
-125 -56 1 5 44 16 152 25 240 8 88 23 203 34 255 27 131 62 274 70 282 4 5
27 -38 50 -95 79 -184 187 -450 221 -542 18 -49 73 -182 123 -295 79 -180 88
-208 79 -232 -12 -33 -2 -36 24 -7 l19 21 23 -29 24 -28 -20 40 c-27 55 -150
350 -302 725 -166 409 -206 500 -227 521 -21 21 -348 198 -486 263 l-97 47 7
42 c16 88 8 238 -20 372 -52 252 -52 257 -17 329 34 69 49 175 33 236 -6 24
-6 46 3 70 52 152 57 177 51 303 -9 224 -83 347 -209 347 -28 0 -37 6 -53 35
-28 53 -156 170 -223 204 -81 41 -160 53 -260 40z m218 -57 c30 -12 69 -33 85
-46 l30 -24 -70 19 c-123 34 -165 26 -302 -57 -59 -36 -142 -73 -229 -104 -75
-27 -157 -62 -181 -79 -23 -17 -43 -26 -43 -20 0 47 76 133 128 145 85 19 126
36 176 75 30 24 53 45 51 47 -2 2 -28 -10 -57 -28 -29 -18 -47 -26 -40 -18 25
31 96 73 161 95 84 30 206 27 291 -5z m53 -73 c95 -32 153 -67 173 -105 30
-55 9 -61 -77 -23 -57 25 -89 32 -140 33 -60 1 -69 -2 -123 -39 -57 -39 -59
-39 -174 -45 -105 -6 -124 -10 -185 -39 -41 -19 -96 -58 -135 -95 -37 -34 -78
-70 -92 -79 -23 -16 -23 -17 -4 -17 24 0 54 21 136 96 91 83 151 107 288 114
118 6 141 13 203 63 44 35 132 31 222 -10 81 -37 75 -43 -38 -46 -72 -2 -78
-4 -147 -51 -80 -55 -74 -54 -270 -45 -76 4 -90 1 -129 -21 -26 -14 -70 -56
-102 -96 -49 -60 -68 -76 -127 -102 -38 -17 -79 -42 -90 -56 -19 -25 -20 -26
-25 -4 -11 40 39 235 71 278 36 48 102 79 223 104 137 28 184 50 259 121 30
29 69 60 85 68 42 23 124 21 198 -4z m320 -193 c65 -27 104 -100 121 -226 l6
-45 -29 50 c-16 28 -47 63 -69 78 -41 29 -106 52 -120 43 -5 -3 -4 22 1 55 9
53 12 59 34 59 13 0 38 -6 56 -14z m-127 -50 c-4 -18 -27 -30 -118 -64 -130
-48 -160 -53 -73 -12 34 16 51 29 40 29 -11 1 -58 -17 -105 -39 -95 -45 -112
-46 -225 -25 -104 20 -162 13 -225 -30 l-49 -33 21 29 c47 63 140 83 272 58
75 -13 104 -6 180 46 78 53 123 68 179 60 31 -5 53 -2 73 8 31 17 39 10 30
-27z m-44 -76 c-20 -19 -43 -30 -60 -30 -23 1 -20 5 28 30 69 36 73 36 32 0z
m182 -25 c62 -41 116 -150 116 -234 0 -75 -13 -94 -28 -42 -26 84 -127 190
-205 213 -47 14 -56 32 -31 60 37 40 89 41 148 3z m-161 -106 c24 -47 29 -71
32 -145 2 -49 10 -108 19 -131 20 -56 39 -236 31 -293 -8 -54 -29 -107 -53
-133 -10 -12 -17 -35 -17 -61 0 -37 -3 -41 -26 -44 -17 -2 -37 6 -55 21 -16
14 -48 35 -71 46 -30 16 -42 30 -47 51 -4 22 -16 35 -41 47 l-35 17 0 73 c0
59 3 73 16 73 14 0 14 2 0 22 -63 90 74 152 216 98 29 -11 54 -20 56 -20 1 0
-7 19 -19 43 l-22 42 23 -20 23 -20 -19 33 c-24 43 -47 47 -162 33 -85 -10
-96 -10 -107 5 -11 15 -12 15 -19 -2 -11 -28 -20 -322 -12 -377 7 -43 26 -67
26 -32 0 18 21 20 38 3 23 -23 14 -41 -18 -36 -16 3 -30 2 -30 -2 0 -10 -48
-30 -71 -30 -10 0 -36 9 -56 20 -21 11 -46 17 -55 14 -13 -4 -18 0 -18 14 0
24 23 35 39 19 10 -9 17 -6 33 13 19 24 20 34 15 200 -3 96 -8 184 -13 194 -6
17 -8 17 -19 3 -10 -14 -24 -14 -118 -5 -107 11 -108 11 -133 -13 -26 -24 -54
-70 -54 -88 0 -5 25 -1 57 10 63 21 172 26 206 7 53 -28 60 -68 20 -111 -24
-25 -25 -28 -6 -18 12 6 24 11 27 11 3 0 6 -38 6 -85 l0 -85 -29 0 c-32 0 -49
-16 -60 -55 -5 -19 -17 -31 -44 -40 -20 -7 -52 -27 -72 -44 -57 -50 -95 -35
-95 37 0 16 -8 37 -19 46 -10 9 -27 43 -37 74 -16 51 -16 70 -6 182 6 69 18
145 27 169 8 24 15 54 15 67 0 13 5 24 11 24 8 0 10 -19 6 -62 -5 -62 -5 -62
10 -33 10 19 16 58 17 113 l1 84 37 32 c21 18 57 39 80 46 75 23 360 58 453
57 l89 -2 29 -56z m58 21 c23 0 113 -99 141 -155 33 -63 42 -140 24 -200 -7
-27 -9 -28 -16 -10 -5 11 -9 32 -9 46 -1 38 -64 158 -110 210 -35 40 -71 98
-71 115 0 3 7 3 16 0 9 -3 20 -6 25 -6z m-823 -132 c-1 -46 -5 -88 -10 -94 -5
-7 -7 -17 -6 -22 4 -15 -93 -142 -104 -136 -23 14 -4 67 44 123 36 41 29 55
-7 15 -34 -37 -65 -103 -58 -123 4 -14 3 -14 -6 -1 -26 36 -12 83 50 170 34
47 68 100 77 118 9 17 17 32 18 32 1 0 2 -37 2 -82z m-116 -51 c-85 -111 -92
-114 -92 -33 0 33 6 48 26 67 24 22 135 79 142 73 2 -1 -32 -50 -76 -107z
m1015 -33 c18 -39 36 -93 39 -120 5 -42 3 -52 -15 -68 -12 -11 -21 -17 -21
-15 0 2 -4 20 -10 39 l-9 35 20 -24 20 -24 -4 34 c-4 34 -32 97 -61 134 -29
37 -16 0 19 -55 48 -74 44 -89 -4 -16 -32 48 -39 67 -39 108 -1 27 -4 59 -7
71 -12 42 35 -22 72 -99z m-952 -191 c-6 -24 -7 -24 -25 -8 -19 17 -19 18 3
47 21 29 22 29 25 8 2 -12 1 -33 -3 -47z m1045 -118 c0 -58 -15 -112 -38 -135
-13 -13 -14 -12 -8 15 3 17 9 63 12 103 6 62 5 72 -9 72 -9 0 -17 -10 -19 -22
l-3 -23 -7 23 c-5 17 0 30 14 44 l21 21 19 -23 c12 -15 18 -39 18 -75z m-1090
66 c5 -11 7 -27 3 -36 -5 -15 -8 -15 -24 6 l-19 24 0 -41 c0 -22 7 -63 15 -90
19 -64 20 -90 2 -75 -29 23 -54 161 -38 204 12 32 45 36 61 8z m49 -113 c-1
-51 2 -105 6 -121 6 -21 1 -37 -20 -68 -14 -23 -28 -39 -30 -37 -10 10 30 318
41 318 3 0 4 -42 3 -92z m956 -43 c4 -63 3 -68 -10 -51 -19 25 -19 9 0 -24 8
-14 14 -31 15 -39 0 -11 -3 -11 -17 0 -11 9 -9 3 5 -15 12 -16 22 -40 22 -55
0 -24 -3 -22 -30 19 -27 41 -41 88 -22 77 8 -5 10 25 12 143 1 63 3 70 11 45
5 -16 11 -61 14 -100z m-948 -167 c-23 -30 -24 -38 -16 -87 4 -29 15 -63 22
-75 13 -20 11 -28 -29 -96 -51 -88 -55 -87 -14 6 17 37 28 69 25 72 -8 8 -73
-140 -79 -182 -5 -35 0 -30 56 60 33 55 62 100 63 102 2 2 22 -2 45 -9 l42
-13 -4 -97 c-5 -107 -17 -136 -83 -199 -107 -102 -111 -239 -14 -402 l49 -83
-61 64 c-87 91 -114 153 -114 261 0 100 10 128 80 230 55 79 75 126 75 169 -1
20 -4 16 -16 -19 -9 -25 -40 -76 -69 -115 -70 -93 -93 -140 -103 -216 -9 -60
-10 -56 -11 62 -1 131 14 215 59 337 11 30 18 58 14 63 -3 6 -2 18 2 27 6 15
12 51 16 99 1 7 4 10 8 8 3 -2 19 16 35 40 17 24 34 40 39 35 4 -5 -3 -23 -17
-42z m930 -18 c19 -33 30 -45 36 -37 5 7 6 3 2 -10 -3 -12 -1 -32 5 -43 21
-39 60 -281 59 -364 -1 -80 -1 -81 -14 -41 -17 55 -103 253 -127 292 -10 17
-15 34 -10 37 9 5 17 -12 102 -199 29 -62 40 -79 36 -55 -3 19 -31 86 -62 148
-54 111 -55 114 -38 139 l17 26 15 -29 c9 -16 21 -47 29 -69 l13 -40 -6 40
c-3 22 -14 54 -25 71 -10 17 -19 47 -19 67 0 24 -8 45 -25 64 -15 17 -23 21
-19 11 3 -10 1 -18 -5 -18 -6 0 -11 16 -11 36 0 44 11 38 47 -26z m-878 -12
l23 -38 -27 0 c-25 0 -27 3 -20 28 5 22 4 25 -6 15 -22 -22 -30 -14 -13 12 9
14 18 24 19 23 1 -2 12 -20 24 -40z m350 8 c9 -11 2 -21 -39 -51 -27 -20 -50
-39 -50 -41 0 -8 57 25 88 51 34 28 44 31 36 11 -6 -17 -118 -78 -127 -70 -3
3 -16 -1 -29 -10 -54 -38 -34 -11 34 45 108 90 104 93 -12 9 -100 -73 -118
-80 -185 -73 l-59 6 53 23 c29 13 74 39 101 59 26 19 58 39 71 44 36 15 105
13 118 -3z m243 -2 c16 -9 50 -34 74 -56 24 -22 63 -46 86 -53 l43 -12 -31 -7
c-37 -8 -96 13 -131 46 -13 12 -23 18 -23 13 0 -4 -8 -1 -17 7 -10 8 -31 22
-48 32 -23 13 -21 10 10 -16 21 -18 51 -43 65 -56 l25 -23 -32 16 c-41 19
-143 95 -143 106 0 22 80 25 122 3z m-93 -44 c24 -22 40 -40 37 -40 -23 0 -96
55 -96 72 0 15 15 7 59 -32z m346 -10 c-11 -12 -32 -20 -54 -21 -33 -1 -34 -2
-11 -9 25 -8 25 -8 2 -9 -25 -1 -87 27 -79 36 3 3 13 0 23 -5 13 -7 27 -4 56
14 21 13 38 21 38 17 0 -4 5 -2 12 5 21 21 34 -5 13 -28z m-781 -9 c7 -11 -47
-34 -70 -29 -24 4 -29 25 -7 31 32 8 72 7 77 -2z m366 -17 c0 -2 -9 -4 -21 -4
-11 0 -18 4 -14 10 5 8 35 3 35 -6z m59 -45 c39 -14 40 -25 0 -33 -60 -12
-189 -3 -189 14 0 27 129 40 189 19z m150 -53 c18 -10 31 -28 38 -53 19 -64
24 -117 14 -148 -5 -16 -10 -24 -10 -17 -1 8 -29 56 -62 108 -51 78 -59 97
-49 109 16 19 33 19 69 1z m-419 -1 c0 -2 -21 -36 -46 -75 -25 -39 -52 -87
-60 -108 -14 -36 -14 -36 -11 45 5 113 18 131 105 142 6 0 12 -1 12 -4z m648
-117 c51 -126 82 -220 82 -247 -1 -9 -7 -2 -14 14 -15 34 -106 171 -106 159 0
-4 21 -43 46 -86 61 -104 95 -218 64 -218 -5 0 -10 7 -10 15 0 20 -44 108 -82
163 -44 63 -57 102 -71 208 -13 94 -13 96 7 104 12 5 24 9 27 9 4 1 29 -54 57
-121z m-540 104 l23 -7 -30 -46 c-26 -42 -164 -169 -183 -169 -24 0 3 59 69
151 59 81 68 86 121 71z m260 -100 c39 -60 72 -113 72 -120 0 -15 -147 80
-177 114 -15 16 -23 38 -23 60 0 27 5 37 23 44 12 5 24 9 27 9 3 0 38 -48 78
-107z m-488 66 c-5 -18 -11 -42 -13 -53 -3 -11 -5 4 -6 33 -1 39 3 52 13 52
11 0 13 -7 6 -32z m654 1 c3 -17 6 -57 6 -88 0 -79 14 -121 65 -196 87 -127
119 -219 96 -275 -8 -21 -10 -17 -10 32 -1 32 -10 80 -22 112 -25 65 -37 70
-14 6 17 -49 20 -185 5 -226 -6 -15 -21 -39 -34 -55 l-24 -28 4 127 c3 136 -5
119 -25 -51 -7 -59 -18 -100 -32 -123 -12 -19 -23 -33 -25 -31 -3 2 5 43 16
91 25 107 36 208 21 186 -6 -8 -11 -26 -11 -39 0 -30 -42 -183 -48 -177 -2 3
1 57 8 121 15 131 6 208 -35 308 l-23 59 23 33 c12 19 25 31 29 28 15 -15 0
136 -20 200 -4 13 0 17 19 17 19 0 26 -6 31 -31z m-368 12 c-3 -5 1 -22 9 -37
8 -16 15 -34 15 -41 0 -6 3 -13 8 -15 4 -1 18 -28 31 -58 32 -72 38 -163 16
-216 -31 -71 -35 -105 -20 -172 24 -104 20 -137 -27 -215 -23 -38 -47 -90 -54
-116 l-12 -46 -7 47 c-7 48 -2 70 49 213 23 63 25 85 26 225 0 100 -5 177 -15
215 -7 34 -14 80 -13 103 0 24 -2 46 -6 49 -10 10 -6 -109 5 -152 5 -22 9
-120 9 -219 l-1 -179 -35 -85 c-42 -102 -42 -152 0 -271 14 -41 24 -76 22 -78
-6 -7 -65 83 -87 132 -29 66 -27 147 6 225 37 87 32 164 -15 272 -19 43 -35
76 -37 74 -2 -2 9 -46 26 -97 37 -119 41 -145 31 -194 -7 -36 -8 -37 -10 -10
-1 17 -5 39 -10 50 -7 15 -9 9 -9 -25 -1 -25 -8 -78 -16 -117 -11 -54 -13 -84
-5 -115 15 -65 12 -68 -18 -13 -26 47 -27 58 -29 200 -1 93 -7 178 -17 223
-33 152 -19 213 72 303 32 31 69 78 83 103 13 25 28 46 32 46 5 0 6 -4 3 -9z
m97 -135 c67 -101 71 -112 78 -251 5 -71 11 -168 15 -216 8 -103 -1 -126 -87
-214 -32 -33 -68 -82 -81 -110 l-23 -50 -3 37 c-5 56 13 105 68 193 62 98 67
117 73 280 2 86 1 118 -5 95 -5 -19 -10 -81 -12 -137 -4 -109 -19 -163 -31
-108 -3 17 -10 46 -15 66 -16 60 -11 114 15 171 35 76 34 145 -4 212 -21 36
-31 69 -35 116 -5 60 -4 61 4 16 5 -26 24 -71 43 -100z m79 -63 c43 -48 58
-103 58 -228 0 -75 6 -141 15 -175 8 -30 18 -91 21 -135 5 -65 3 -87 -10 -115
-17 -34 -176 -195 -176 -178 0 14 40 89 72 135 52 77 88 164 87 213 l-1 45 -8
-50 c-9 -59 -31 -106 -95 -195 -48 -68 -75 -139 -75 -199 l-1 -36 -14 25 c-22
38 -29 104 -15 145 7 20 46 73 91 121 43 47 79 88 79 92 1 4 5 27 9 51 6 30 4
76 -5 135 -7 50 -14 127 -14 172 0 91 -11 133 -48 183 -20 27 -21 31 -6 23 11
-6 27 -19 36 -29z m-449 -45 c14 -9 2 -167 -19 -253 -11 -42 -18 -112 -18
-177 -1 -58 -4 -104 -8 -102 -3 2 -15 28 -25 57 -15 43 -18 81 -17 217 l2 165
-15 -80 c-20 -111 -13 -255 14 -317 12 -27 20 -48 18 -48 -9 0 -99 166 -111
207 -16 54 -18 150 -4 189 6 15 33 52 61 82 28 31 58 71 67 89 l16 34 14 -28
c8 -15 19 -31 25 -35z m45 -60 c0 -35 8 -94 17 -133 13 -50 18 -116 19 -230 1
-159 1 -161 33 -228 18 -38 48 -88 65 -110 l33 -42 -45 38 c-62 52 -96 97
-128 164 -23 49 -27 71 -27 148 0 50 3 117 7 150 6 50 6 53 -3 20 -34 -140
-35 -210 -5 -310 4 -11 -1 -4 -10 15 -9 19 -21 65 -27 101 -9 60 -7 78 21 197
22 88 32 156 32 207 0 41 4 75 9 75 5 0 9 -28 9 -62z m514 10 c41 -83 52 -148
44 -262 -12 -178 -23 -276 -31 -284 -4 -4 -5 5 -1 20 3 15 -1 78 -10 140 -9
63 -16 168 -15 236 0 81 -4 136 -13 162 -19 57 -4 49 26 -12z m360 -205 c28
-32 67 -119 113 -254 25 -72 45 -133 45 -135 0 -3 -105 -34 -118 -34 -6 0 -36
21 -69 46 -69 54 -34 21 100 -95 53 -46 97 -87 97 -92 0 -15 -129 -425 -147
-468 l-19 -45 -94 -23 c-52 -12 -95 -22 -96 -20 -1 1 8 110 21 242 13 132 29
311 36 398 7 86 15 157 18 157 4 0 6 26 7 58 1 41 9 72 29 111 15 29 32 80 38
112 7 33 14 59 18 59 3 0 13 -8 21 -17z m-1242 -39 c7 -25 37 -82 67 -126 30
-44 53 -84 51 -88 -3 -6 -122 -113 -172 -153 -22 -18 -25 -18 -89 -1 -49 13
-67 23 -67 35 0 28 70 221 98 269 34 60 74 110 88 110 6 0 17 -21 24 -46z
m1732 -199 c15 -9 15 -18 -12 -113 -29 -105 -104 -424 -116 -497 -6 -40 -7
-39 -32 52 -14 55 -29 90 -35 86 -6 -4 -8 -66 -4 -177 3 -94 2 -191 -2 -216
-5 -25 -9 -40 -10 -33 0 6 -11 13 -23 15 -13 2 -24 12 -28 26 -3 12 -18 29
-35 38 -24 12 -37 13 -78 3 -26 -6 -50 -9 -53 -6 -3 3 29 113 70 244 42 132
76 248 76 259 0 10 -21 40 -47 66 l-46 47 29 11 c16 6 35 13 42 15 19 7 16 17
-46 211 l-59 181 196 -101 c108 -56 204 -106 213 -111z m-1927 20 c-30 -94
-54 -174 -52 -180 2 -5 34 -19 72 -30 l68 -21 -66 -51 c-36 -29 -68 -61 -72
-72 -3 -11 1 -34 11 -53 10 -18 59 -123 109 -234 l92 -201 -36 1 c-32 1 -37
-2 -46 -32 -5 -18 -14 -31 -21 -28 -7 3 -19 -1 -27 -7 -14 -11 -14 -31 -2
-187 8 -96 17 -200 20 -231 l6 -56 -58 -1 c-32 -1 -67 -3 -77 -4 -18 -3 -22 9
-36 97 -10 56 -22 117 -29 137 -8 25 -9 54 -2 104 20 135 32 310 25 374 -11
103 -20 114 -28 35 -12 -113 -18 -117 -33 -20 -12 83 -133 467 -169 537 -20
38 -18 51 14 69 15 9 108 64 206 123 99 58 181 105 182 103 2 -2 -21 -79 -51
-172z m359 -345 c51 -378 70 -540 62 -547 -3 -4 -54 4 -113 18 l-107 24 -91
200 c-50 110 -99 219 -108 242 l-17 42 85 73 c168 144 247 209 251 206 2 -2
19 -118 38 -258z m263 -49 l93 -94 0 -117 c0 -64 -3 -178 -7 -252 l-6 -136
-28 10 c-44 15 -125 110 -149 175 -46 123 -79 320 -96 568 l-7 100 53 -80 c30
-44 96 -122 147 -174z m591 78 c4 -149 -17 -375 -45 -472 -23 -82 -103 -169
-191 -209 -35 -15 -66 -28 -68 -28 -2 0 -4 128 -4 284 l0 285 38 28 c189 139
242 195 242 260 1 26 1 27 13 8 7 -12 13 -73 15 -156z m-356 -116 c17 5 18
-10 18 -304 0 -170 -3 -309 -7 -309 -5 0 -33 9 -63 19 l-55 18 -5 305 -5 304
49 -19 c28 -10 58 -16 68 -14z m756 -470 c3 -18 -3 -23 -35 -28 -90 -16 -404
-89 -521 -122 -164 -46 -180 -49 -166 -33 34 35 638 215 699 207 12 -1 21 -11
23 -24z m-1375 -14 c224 -45 578 -147 593 -170 7 -12 13 -14 -161 31 -193 49
-393 90 -431 89 -27 0 -27 -1 -7 -9 12 -5 83 -23 157 -41 75 -18 134 -34 132
-36 -2 -2 -79 10 -172 27 -93 16 -182 32 -199 35 -20 4 -26 2 -19 -5 20 -20
204 -59 451 -97 136 -21 234 -39 216 -41 -39 -4 -370 31 -547 58 -72 11 -137
18 -147 15 -13 -4 -18 3 -23 32 -10 61 -7 90 9 97 8 3 15 12 15 21 0 20 12 19
133 -6z m1447 -59 c0 -22 -3 -40 -7 -40 -3 0 -123 -20 -267 -45 -255 -44 -469
-76 -490 -74 -6 0 57 16 139 35 192 44 482 94 541 94 32 0 44 4 41 13 -5 15
-40 13 -236 -19 -85 -13 -156 -23 -158 -21 -3 4 53 16 357 81 36 8 68 14 73
15 4 1 7 -17 7 -39z m-457 -67 c-7 -2 -19 -2 -25 0 -7 3 -2 5 12 5 14 0 19 -2
13 -5z m-656 -19 c-3 -3 -12 -4 -19 -1 -8 3 -5 6 6 6 11 1 17 -2 13 -5z
m-1117 -140 c58 -27 124 -73 117 -81 -3 -2 -32 5 -66 17 -114 38 -263 19 -327
-41 -13 -13 -24 -18 -24 -13 0 14 77 87 124 118 50 34 104 34 176 0z m376
-191 c-3 -7 -15 -13 -26 -13 -18 0 -20 6 -20 55 0 49 9 84 37 150 9 22 18
-168 9 -192z m1921 113 c-3 -34 -13 -77 -22 -96 l-16 -35 5 45 c3 25 8 76 12
114 5 52 9 64 17 51 5 -10 7 -45 4 -79z m585 25 c32 -7 191 -150 219 -195 22
-37 25 -106 5 -144 -22 -42 -52 -65 -75 -57 -20 6 -20 5 -5 -31 14 -34 14 -41
-1 -80 -27 -71 -92 -114 -257 -173 l-88 -30 -1 97 c-2 159 -13 174 -27 35 -6
-66 -14 -128 -18 -136 -3 -8 -25 -29 -50 -47 l-45 -32 6 38 7 39 -21 -40 c-12
-22 -46 -65 -77 -95 l-56 -55 30 43 c53 75 67 132 67 272 0 116 -2 129 -28
185 -39 84 -72 129 -118 161 -22 15 -36 30 -32 34 12 11 121 30 167 30 49 0
168 -33 205 -56 l26 -17 -19 21 c-10 12 -42 33 -70 48 l-51 26 53 -6 c69 -7
162 -57 214 -115 40 -45 108 -174 108 -205 0 -25 18 -27 34 -4 9 12 16 43 16
68 0 59 -35 115 -118 192 -74 68 -145 98 -257 107 l-80 7 65 7 c124 15 265
-21 383 -97 l57 -36 -24 49 c-32 61 -79 102 -179 150 -43 22 -72 41 -65 44 17
7 66 6 100 -2z m-2876 -39 c17 -10 14 -11 -16 -12 -61 -1 -168 -28 -233 -59
-75 -36 -155 -103 -163 -137 -8 -30 -20 -31 -34 -3 -19 35 -3 66 63 115 34 27
65 52 68 57 3 5 10 9 15 10 5 0 32 11 59 24 43 20 62 23 136 19 47 -2 95 -8
105 -14z m2774 -12 c20 -5 45 -17 55 -26 18 -14 18 -15 2 -10 -10 3 -51 9 -90
12 -40 3 -83 8 -97 11 -23 5 -24 6 -5 13 28 12 94 12 135 0z m-2721 -90 l-44
-41 35 18 c38 19 179 25 235 10 l29 -8 -64 -35 c-69 -37 -144 -103 -175 -156
-15 -26 -2 -17 63 39 120 106 267 175 161 76 -61 -57 -130 -190 -154 -297 -17
-78 -17 -220 0 -261 8 -19 -91 65 -107 90 -4 6 -8 62 -9 125 -2 85 -5 108 -12
90 -50 -130 -57 -137 -134 -121 -126 25 -217 97 -215 171 1 45 61 149 119 208
73 73 191 126 292 131 21 1 19 -3 -20 -39z m506 -60 c23 -11 88 -28 146 -39
57 -10 127 -28 154 -38 49 -19 50 -20 47 -57 -2 -28 0 -37 10 -34 7 3 14 14
16 26 2 12 8 22 14 22 15 0 78 -49 78 -61 0 -13 -66 -10 -135 6 -33 8 -116 18
-185 21 -83 4 -133 11 -148 21 -23 14 -24 14 -17 -9 21 -68 57 -77 350 -92
193 -9 230 -13 230 -26 0 -12 -36 -18 -195 -32 -107 -9 -231 -17 -275 -17 -89
-1 -128 -14 -75 -25 54 -10 227 -6 379 9 80 8 147 12 150 10 10 -11 -17 -23
-109 -48 -157 -43 -299 -68 -397 -70 -89 -2 -92 -3 -71 -19 12 -9 34 -18 49
-20 43 -7 183 10 266 31 42 11 79 18 81 16 15 -14 -204 -95 -315 -116 -57 -11
-64 -10 -97 10 -19 12 -47 36 -61 53 -31 37 -75 121 -75 143 0 9 -4 14 -9 11
-4 -3 -5 -25 -1 -48 10 -55 6 -60 -10 -12 -22 64 -8 182 28 257 28 56 107 147
129 147 4 0 25 -9 48 -20z m-848 -62 c-25 -35 -55 -83 -68 -108 -20 -39 -24
-42 -27 -22 -5 35 35 108 85 152 25 22 48 40 50 40 2 0 -16 -28 -40 -62z m662
-25 c-42 -66 -61 -141 -61 -237 -1 -100 16 -160 55 -192 l29 -24 -27 0 c-43 0
-60 16 -91 82 -55 121 -29 295 56 381 56 55 78 50 39 -10z m1947 -39 c12 -33
15 -65 12 -129 -4 -72 -10 -95 -39 -152 -21 -42 -47 -76 -68 -90 -37 -25 -75
-33 -53 -11 7 7 12 14 12 17 0 4 -55 6 -123 7 -115 1 -226 19 -248 41 -4 4 63
8 149 9 157 1 229 12 251 38 9 11 4 12 -31 5 -52 -10 -378 -11 -433 -1 -25 5
-40 13 -40 22 0 11 18 16 75 21 124 10 393 40 430 48 31 7 26 9 -44 16 -76 7
-255 3 -402 -11 -52 -5 -73 -3 -79 6 -12 19 15 30 75 30 30 0 84 5 119 11 35
5 116 16 180 24 64 7 127 18 141 24 40 16 -182 14 -270 -3 -41 -8 -76 -14 -76
-13 -1 1 -4 18 -6 37 -3 32 -1 35 43 51 25 9 97 22 160 28 174 18 191 21 197
43 4 18 6 18 28 -3 13 -12 31 -41 40 -65z m94 -75 c20 -73 -19 -190 -77 -233
-26 -19 -26 -19 -18 0 28 65 46 164 42 229 -3 39 -8 79 -12 90 -5 14 2 11 24
-12 16 -18 35 -51 41 -74z m-588 6 c5 -24 3 -25 -38 -25 -49 0 -60 19 -21 38
37 18 54 14 59 -13z m598 -300 c0 -23 -31 -58 -64 -74 -71 -34 -89 -35 -116
-7 -25 28 -16 33 24 15 32 -15 72 0 112 42 25 26 44 37 44 24z m-2131 -104
c43 -22 45 -23 80 -6 l36 17 -24 -26 c-14 -14 -33 -26 -43 -26 -26 0 -89 33
-112 59 -20 22 -20 22 0 14 10 -5 39 -19 63 -32z"/>
<path d="M2578 4063 c34 -2 90 -2 125 0 34 2 6 3 -63 3 -69 0 -97 -1 -62 -3z"/>
<path d="M2553 4013 c54 -2 139 -2 190 0 51 1 7 3 -98 3 -104 0 -146 -2 -92
-3z"/>
<path d="M2583 3953 c32 -2 81 -2 110 0 29 2 3 3 -58 3 -60 0 -84 -1 -52 -3z"/>
<path d="M2410 3763 c-8 -2 -39 -14 -68 -25 -68 -26 -53 -38 56 -45 59 -4 82
-1 97 10 19 15 19 16 -15 31 l-35 16 40 -5 40 -5 -30 15 c-31 14 -58 17 -85 8z"/>
<path d="M2773 3760 c-32 -13 -28 -21 7 -13 17 3 30 2 30 -1 0 -4 -13 -12 -30
-17 -65 -23 -16 -45 84 -37 35 3 71 10 81 15 15 9 11 13 -29 33 -54 26 -111
34 -143 20z"/>
<path d="M2405 3670 l-40 -7 35 -1 c19 0 44 3 55 8 24 10 7 10 -50 0z"/>
<path d="M2843 3663 c9 -2 25 -2 35 0 9 3 1 5 -18 5 -19 0 -27 -2 -17 -5z"/>
<path d="M2136 3859 c-25 -28 -46 -56 -46 -62 0 -6 2 -8 4 -6 25 29 95 119 92
119 -2 0 -25 -23 -50 -51z"/>
<path d="M2139 3453 c-13 -16 -12 -17 4 -4 16 13 21 21 13 21 -2 0 -10 -8 -17
-17z"/>
<path d="M2116 3306 c-23 -36 -20 -44 5 -12 12 15 19 29 16 32 -2 2 -12 -7
-21 -20z"/>
<path d="M2111 3254 c-12 -15 -21 -32 -21 -38 1 -11 24 15 41 47 14 25 3 21
-20 -9z"/>
<path d="M2056 3041 c-22 -75 -39 -165 -34 -187 2 -10 16 37 31 105 28 129 30
171 3 82z"/>
<path d="M2154 2918 l-19 -23 23 19 c21 18 27 26 19 26 -2 0 -12 -10 -23 -22z"/>
<path d="M3099 3178 c15 -39 51 -108 56 -108 7 0 -44 113 -56 125 -7 7 -7 1 0
-17z"/>
<path d="M2439 3313 c-13 -16 -12 -17 4 -4 9 7 17 15 17 17 0 8 -8 3 -21 -13z"/>
<path d="M2360 3264 c-30 -19 -48 -34 -42 -34 20 0 65 26 86 49 24 27 22 26
-44 -15z"/>
<path d="M2953 2850 c0 -47 2 -66 4 -42 2 23 2 61 0 85 -2 23 -4 4 -4 -43z"/>
<path d="M2555 3052 c-37 -63 -39 -72 -39 -142 1 -41 5 -85 10 -97 6 -15 9 8
9 75 0 92 2 100 33 154 19 32 32 62 30 67 -1 5 -21 -20 -43 -57z"/>
<path d="M2480 2949 c-11 -24 -19 -62 -19 -84 1 -36 2 -34 14 23 8 35 19 70
26 78 7 8 9 17 6 21 -4 3 -16 -14 -27 -38z"/>
<path d="M2567 2910 c3 -25 9 -76 12 -115 6 -67 7 -68 14 -30 5 28 1 63 -13
115 -13 50 -17 60 -13 30z"/>
<path d="M2673 2865 c0 -33 2 -45 4 -27 2 18 2 45 0 60 -2 15 -4 0 -4 -33z"/>
<path d="M2661 2784 c0 -11 3 -14 6 -6 3 7 2 16 -1 19 -3 4 -6 -2 -5 -13z"/>
<path d="M3220 2041 c0 -13 82 -61 92 -55 16 10 7 20 -37 42 -51 25 -55 26
-55 13z"/>
<path d="M2300 1932 c0 -23 57 -244 80 -303 18 -51 66 -116 77 -105 4 4 -90
265 -131 361 -14 33 -25 54 -26 47z"/>
<path d="M2947 1930 c-9 -32 -34 -223 -42 -317 -4 -48 -3 -73 4 -73 19 0 43
62 51 129 9 77 -2 300 -13 261z"/>
<path d="M2614 1779 c-8 -14 11 -33 25 -25 6 4 11 11 11 16 0 13 -29 20 -36 9z"/>
<path d="M3755 946 c41 -13 116 -51 220 -111 33 -19 63 -35 68 -35 45 -1 -112
106 -203 137 -36 12 -78 22 -95 22 -28 0 -28 -1 10 -13z"/>
<path d="M1450 1013 c-8 -3 -26 -10 -39 -15 -13 -5 -22 -10 -20 -13 5 -5 109
24 109 31 0 6 -32 4 -50 -3z"/>
<path d="M1750 661 c5 -11 15 -23 21 -27 6 -3 3 5 -6 20 -20 30 -30 35 -15 7z"/>
<path d="M1327 1698 c-8 -53 10 -183 33 -235 26 -59 61 -105 101 -133 34 -25
51 -20 26 7 -29 33 -90 174 -122 285 -29 98 -33 106 -38 76z"/>
</g>
</svg>